# xmcd
#
# Track frame offsets:
#	150
#	16345
#	43587
#	63187
#	90275
#
# Disc length: 2275 seconds
#
# Revision: 1
# Processed by: cddbd v1.5.2PL0 Copyright (c) Steve Scherf et al.
# Submitted via: audiograbber 1.83.01
#
DISCID=2e08e105
DTITLE=Kelle Bryan - Higher Than Heaven
DYEAR=1999
DGENRE=Pop
TTITLE0=Higher Than Heaven
TTITLE1=Higher Than Heaven (De Funk Club Mix)
TTITLE2=Higher Than Heaven (Ignorants Mix)
TTITLE3=Higher Than Heaven (Synth Strings, The Video)
TTITLE4=Data Track
EXTD=
EXTT0=
EXTT1=
EXTT2=
EXTT3=
EXTT4=
PLAYORDER=
